<svg xmlns="http://www.w3.org/2000/svg" xmlns:xlink="http://www.w3.org/1999/xlink" width="400" height="250" version="1.1" viewBox="0 0 400 250"><title>drake-ok</title><desc>Created with Sketch.</desc><g id="Page-1" fill="none" fill-rule="evenodd" stroke="none" stroke-width="1"><g id="drake-ok"><g transform="translate(136.000000, 91.000000)"><ellipse id="Oval-34" cx="49.213" cy="120.479" fill="#D5E5EB" fill-opacity=".278" rx="48.872" ry="14.979"/><ellipse id="Oval-18" cx="48.176" cy="119.309" fill="#D5E5EB" rx="26.676" ry="8.191"/><path id="Oval-20" fill="#9EBEC9" d="M48.1349527,123.908266 C58.1506105,123.908266 66.2699054,121.483411 66.2699054,118.492202 C66.2699054,117.92941 45.4412186,98.9111322 44.1894527,85.3476569 C43.2080074,71.7841803 76.3440172,47.2255631 80.4648472,42.4296876 C84.3004016,37.9658194 78.3654481,23.7166158 66.2699047,27.9316408 C42.0238109,36.3808594 20.1835936,53.4746099 16.6777344,79.3886725 C13.1718752,105.302735 30,117.745512 30,118.492202 C30,121.483411 38.1192949,123.908266 48.1349527,123.908266 Z"/><path id="Oval-21" fill="#7BA6B4" d="M43.7249968,123.747011 C32.6259766,119.925781 18.5214849,93.7892747 19.7490235,82.3488484 C22.5363417,56.3715727 27.4277344,56.7490234 41.0410924,40.9506856 C28.3173318,50.3117932 18.8800512,63.1099309 16.6777344,79.3886725 C13.1718752,105.302735 30,117.745512 30,118.492202 C30,121.029165 35.8405382,123.158725 43.7249968,123.747011 Z"/><path id="Path-89" fill="#7BA6B4" d="M43.1816411,41.2382812 C54.7207036,30.8105469 84.3125013,0.76171875 99.2968763,0.76171875 C114.281251,0.76171875 120.779297,7.81152344 120.779297,15.7167969 C120.779297,23.6220703 88.9960938,53.9082031 79.1152344,64.6835938 C69.234375,75.4589844 31.6425786,51.6660156 43.1816411,41.2382812 Z"/><g id="Group" transform="translate(31.000000, 23.500000)"><rect id="Rectangle-324" width="98" height="77" x="0" y="0" fill="#FFF" stroke="#D2DEE6" stroke-width="3"/><rect id="Rectangle-325" width="77" height="20" x="10" y="9" fill="#E8F0F5"/><rect id="Rectangle-326" width="48" height="35" x="10" y="33" fill="#B8E986"/><rect id="Rectangle-326" width="24" height="35" x="63" y="33" fill="#E8F0F5"/></g><path id="Path-88" fill="#9EBEC9" d="M84.9394532,45.5332031 C87.9667969,48.1357422 99.4746092,49.7158203 102.931057,48.4697266 C106.387504,47.2236328 121.914062,27.3808594 121.914062,20.3808594 C121.914062,13.3808594 121.876953,4.9609375 112.962891,2.4609375 C104.048828,-0.0390625 100.252346,0.434570281 95.6884764,2.46093749 C91.1246071,4.4873047 90.2031251,8.34960937 88.4101562,14.3652344 C86.6171874,20.3808594 81.9121094,42.9306641 84.9394532,45.5332031 Z"/><path id="Path-90" fill="#7BA6B4" d="M102.931056,47.3708496 C101.198485,47.5895996 81.5112305,42.0776367 85.3603516,45.8430176 C86.9316406,46.7966309 88.3741488,47.3894936 91.4004714,48.0039407 C92.3164375,48.1899132 93.2889453,48.3542058 94.2871092,48.4697266 C98.5831749,48.9669244 102.515091,48.6196877 102.931057,48.4697266 C106.387504,47.2236328 121.914062,27.3808594 121.914062,20.3808594 C121.914062,13.3808594 121.876953,4.9609375 112.962891,2.4609375 C125.198242,5.6484375 120.831055,22.7460937 116.831055,27.3339844 C114.560168,29.9386289 105.249022,43.7612305 102.931056,47.3708496 Z"/><ellipse id="Oval-22" cx="93.753" cy="22.441" fill="#6C93A0" rx="1.251" ry="2.291" transform="translate(94.001920, 22.649656) rotate(18.000000) translate(-94.001920, -22.649656)"/><ellipse id="Oval-23" cx="107.753" cy="25.441" fill="#6C93A0" rx="1.251" ry="2.291" transform="translate(108.001920, 25.649656) rotate(18.000000) translate(-108.001920, -25.649656)"/><path id="Oval-27" fill="#7BA6B4" d="M89.5441584,41.5155017 C90.1197709,41.5155017 90.586397,41.0491836 90.586397,40.473951 C90.586397,39.8987185 90.1197709,39.4324004 89.5441584,39.4324004 C88.9685459,39.4324004 88.5019197,39.8987185 88.5019197,40.473951 C88.5019197,41.0491836 88.9685459,41.5155017 89.5441584,41.5155017 Z"/><ellipse id="Oval-28" cx="101.544" cy="42.474" fill="#7BA6B4" rx="1.042" ry="1.042"/><path id="Path-6" fill="#7BA6B4" d="M118.277768,8.42158346 L112.923286,8.42158346 C111.1038,8.42158346 109.941523,9.86944869 110.324586,11.6430606 L111.053751,15.0191557 L118.277768,8.42158346 Z" transform="translate(114.115327, 11.831848) rotate(-213.000000) translate(-114.115327, -11.831848)"/><path id="Path-7" fill="#7BA6B4" d="M100.277768,4.42158346 L94.9232862,4.42158346 C93.1038001,4.42158346 91.9415234,5.86944869 92.3245859,7.64306058 L93.0537509,11.0191557 L100.277768,4.42158346 Z" transform="translate(96.115327, 7.831848) scale(-1, 1) rotate(-248.000000) translate(-96.115327, -7.831848)"/><path id="ï˜" fill="#FFF" d="M77,64.34375 L73.875,62 L62.9375,74.5 L57.46875,69.8125 L54.34375,72.9375 L61.375,83.09375 L64.5,83.09375 L77,64.34375 Z"/></g></g></g></svg>